<svg xmlns="http://www.w3.org/2000/svg" viewBox="0 0 120 120" width="100%" height="100%">
  <defs>
    <radialGradient id="bgGrad" cx="50%" cy="40%" r="60%">
      <stop offset="0%" stop-color="#f43f5e" stop-opacity="0.6"/>
      <stop offset="100%" stop-color="#4c0519"/>
    </radialGradient>
    <linearGradient id="bodyGrad" x1="0" y1="0" x2="0" y2="1">
      <stop offset="0%" stop-color="#3b82f6"/>
      <stop offset="100%" stop-color="#1e1b4b"/>
    </linearGradient>
  </defs>
  <!-- Background Circle -->
  <circle cx="60" cy="60" r="58" fill="url(#bgGrad)" stroke="#f43f5e" stroke-width="2"/>
  <!-- Body/Shoulders -->
  <path d="M 22 110 Q 25 82 60 82 Q 95 82 98 110 Z" fill="url(#bodyGrad)"/>
  <!-- Hair back -->
  <path d="M 26 55 Q 30 20 60 18 Q 90 20 94 55 Q 96 75 90 85 Q 86 60 82 50 Q 60 38 38 50 Q 34 60 30 85 Q 24 75 26 55 Z" fill="#e11d48"/>
  <!-- Face -->
  <path d="M 38 45 Q 60 78 82 45 Q 82 30 60 30 Q 38 30 38 45 Z" fill="#fcd34d" opacity="0.95"/>
  <!-- Eyes -->
  <circle cx="48" cy="50" r="3" fill="#1e293b"/>
             <circle cx="72" cy="50" r="3" fill="#1e293b"/>
             <circle cx="49" cy="49" r="1" fill="#fff"/>
             <circle cx="73" cy="49" r="1" fill="#fff"/>
  <!-- Smile -->
  <path d="M 52 62 Q 60 67 68 62" fill="none" stroke="#e11d48" stroke-width="2" stroke-linecap="round"/>
  <!-- Accessories -->
  <path d="M 28 56 A 32 32 0 0 1 92 56" fill="none" stroke="#ec4899" stroke-width="4" stroke-linecap="round"/>
                   <rect x="22" y="48" width="10" height="20" rx="4" fill="#ec4899"/>
                   <rect x="88" y="48" width="10" height="20" rx="4" fill="#ec4899"/>
</svg>